{"title":"I.Frankenstein(2014)1080p.BluRay.H264.AAC.Raven","uid":11222386,"size":1389630423,"categoryP":"video","categoryS":"hd___movies","magnet":"?xt=urn:btih:ad4e2b9c249b122d3b7b4c5754185aba0176a1fe&amp;dn=I.Frankenstein%282014%291080p.BluRay.H264.AAC.Raven&amp;tr=udp%3A%2F%2Ftracker.openbittorrent.com%3A80&amp;tr=udp%3A%2F%2Fopen.demonii.com%3A1337&amp;tr=udp%3A%2F%2Ftracker.coppersurfer.tk%3A6969&amp;tr=udp%3A%2F%2Fexodus.desync.com%3A6969","seeders":1,"leechers":0,"uploader":"Raven1969","files":-1,"time":1413401738,"description":"I.Frankenstein(2014)1080p.BluRay.H264.AAC.Raven.mp4\n\n\n\n\n\nEnglish, Spanish and Greek subs included.\n\n\n\nScreen images:\n\n\n &lt;a href=&quot;\nhttp://i.imgur.com/ZaXWkOL.png&quot; rel=&quot;nofollow&quot; target=&quot;_NEW&quot;&gt;\nhttp://i.imgur.com/ZaXWkOL.png&lt;/a&gt;\n\n &lt;a href=&quot;\nhttp://i.imgur.com/Bgo38qx.png&quot; rel=&quot;nofollow&quot; target=&quot;_NEW&quot;&gt;\nhttp://i.imgur.com/Bgo38qx.png&lt;/a&gt;\n\n &lt;a href=&quot;\nhttp://i.imgur.com/fsZFdW1.png&quot; rel=&quot;nofollow&quot; target=&quot;_NEW&quot;&gt;\nhttp://i.imgur.com/fsZFdW1.png&lt;/a&gt;\n\n &lt;a href=&quot;\nhttp://i.imgur.com/LIZR8qF.png&quot; rel=&quot;nofollow&quot; target=&quot;_NEW&quot;&gt;\nhttp://i.imgur.com/LIZR8qF.png&lt;/a&gt;\n\n &lt;a href=&quot;\nhttp://i.imgur.com/YLq3usS.png&quot; rel=&quot;nofollow&quot; target=&quot;_NEW&quot;&gt;\nhttp://i.imgur.com/YLq3usS.png&lt;/a&gt;\n\n &lt;a href=&quot;\nhttp://i.imgur.com/8FGExfb.png&quot; rel=&quot;nofollow&quot; target=&quot;_NEW&quot;&gt;\nhttp://i.imgur.com/8FGExfb.png&lt;/a&gt;\n\n\n\n\nStoryline:\n\nDr Victor Frankenstein dies frozen to death and the creature buries him at the cemetery of his family. However he is attacked by demons but he kills one of them and Gargoyles save him and take him to a Cathedral where the Gargoyles Order gathers. The Queen of the Gargoyles Leonore keeps Dr. Frankenstein's journal together with the treasures of the Order and gives the name of Adam to the creature. Then she explains to Adam that there is an ancient war between the Gargoyles that are angels and demons under the command of the Prince Naberius. She also invites Adam to join the Gargoyles in the war against demons, but Adam prefers to isolate in a remote place. Two hundred years later, Adam returns and finds a modern society. Soon he learns that Naberius has the intention of creating an army of soulless corpses to be possessed by demons. The scientist Terra is researching a process to create life and Naberius is seeking Dr Frankenstein's journal to help Terra and raise his army.\n\nFrankenstein's creature finds himself caught in an all-out, centuries old war between two immortal clans.\n\n\n\n\nGeneral\nFormat                                   : MPEG-4\nFormat profile                           : Base Media\nCodec ID                                 : isom\nFile size                                : 1.29 GiB\nDuration                                 : 1h 32mn\nOverall bit rate mode                    : Variable\nOverall bit rate                         : 1 995 Kbps\nEncoded date                             : UTC 2014-10-14 07:42:44\nTagged date                              : UTC 2014-10-14 07:42:44\n\nVideo\nID                                       : 1\nFormat                                   : AVC\nFormat/Info                              : Advanced Video Codec\nFormat profile                           : &lt;a class=&quot;__cf_email__&quot; href=&quot;/cdn-cgi/l/email-protection&quot; data-cfemail=&quot;672f0e000f272b534957&quot;&gt;[email&amp;#160;protected]&lt;/a&gt;&lt;script cf-hash='f9e31' type=&quot;text/javascript&quot;&gt;\n/* &lt;![CDATA[ */!function(){try{var t=&quot;currentScript&quot;in document?document.currentScript:function(){for(var t=document.getElementsByTagName(&quot;script&quot;),e=t.length;e--;)if(t[e].getAttribute(&quot;cf-hash&quot;))return t[e]}();if(t&amp;&amp;t.previousSibling){var e,r,n,i,c=t.previousSibling,a=c.getAttribute(&quot;data-cfemail&quot;);if(a){for(e=&quot;&quot;,r=parseInt(a.substr(0,2),16),n=2;a.length-n;n+=2)i=parseInt(a.substr(n,2),16)^r,e+=String.fromCharCode(i);e=document.createTextNode(e),c.parentNode.replaceChild(e,c)}}}catch(u){}}();/* ]]&gt; */&lt;/script&gt;\nFormat settings, CABAC                   : Yes\nFormat settings, ReFrames                : 5 frames\nCodec ID                                 : avc1\nCodec ID/Info                            : Advanced Video Coding\nDuration                                 : 1h 32mn\nBit rate                                 : 1 900 Kbps\nMaximum bit rate                         : 15.4 Mbps\nWidth                                    : 1 920 pixels\nHeight                                   : 800 pixels\nDisplay aspect ratio                     : 2.40:1\nFrame rate mode                          : Constant\nFrame rate                               : 23.976 fps\nColor space                              : YUV\nChroma subsampling                       : 4:2:0\nBit depth                                : 8 bits\nScan type                                : Progressive\nBits/(Pixel*Frame)                       : 0.052\nStream size                              : 1.23 GiB (95%)\nWriting library                          : x264 core 132 \nEncoded date                             : UTC 2014-10-14 07:42:44\nTagged date                              : UTC 2014-10-14 07:44:00\n\nAudio\nID                                       : 2\nFormat                                   : AAC\nFormat/Info                              : Advanced Audio Codec\nFormat profile                           : LC\nCodec ID                                 : 40\nDuration                                 : 1h 32mn\nBit rate mode                            : Variable\nBit rate                                 : 91.6 Kbps\nMaximum bit rate                         : 132 Kbps\nChannel(s)                               : 2 channels\nChannel positions                        : Front: L R\nSampling rate                            : 48.0 KHz\nCompression mode                         : Lossy\nStream size                              : 60.6 MiB (5%)\nEncoded date                             : UTC 2014-10-14 05:55:56\nTagged date                              : UTC 2014-10-14 07:44:00\n\n\nPLEASE  SEED FOR AS LONG AS POSSIBLE TO KEEP THE TORRENT ALIVE :-)","torrent":{"xt":"urn:btih:ad4e2b9c249b122d3b7b4c5754185aba0176a1fe","amp;dn":"I.Frankenstein%282014%291080p.BluRay.H264.AAC.Raven","amp;tr":["udp%3A%2F%2Ftracker.openbittorrent.com%3A80","udp%3A%2F%2Fopen.demonii.com%3A1337","udp%3A%2F%2Ftracker.coppersurfer.tk%3A6969","udp%3A%2F%2Fexodus.desync.com%3A6969"],"infoHash":"ad4e2b9c249b122d3b7b4c5754185aba0176a1fe","infoHashBuffer":{"type":"Buffer","data":[173,78,43,156,36,155,18,45,59,123,76,87,84,24,90,186,1,118,161,254]},"announce":[],"urlList":[]}}